<svg width="68" height="51" viewBox="0 0 68 51" fill="none" xmlns="http://www.w3.org/2000/svg">
<g clip-path="url(#clip0_661_5565)">
<path d="M54.59 13.18L56.04 21.68L44.69 45.43L25.75 21.56L28.54 13.18H54.58M56.86 10.48H26.59L22.72 22.09L45.26 50.5L58.84 22.07L56.86 10.48Z" fill="#222A54"/>
<path d="M0.269989 36.29L14.01 0.849976H45.62V27.03L0.269989 36.29Z" fill="#FF5100"/>
<path d="M61.98 13.18L64.77 21.56L45.83 45.43L34.58 21.89L37.49 13.18H61.98ZM63.93 10.48H35.55L31.68 22.07L45.26 50.5L67.8 22.09L63.93 10.48Z" fill="#222A54"/>
<path d="M62.18 13.18L64.97 21.53L45.27 46.14L25.76 21.55L28.55 13.17H62.18M64.13 10.47H26.6L22.73 22.08L45.26 50.47L68 22.06L64.13 10.47Z" fill="#222A54"/>
<path d="M54.86 42.6599C59.7864 42.6599 63.78 38.6663 63.78 33.7399C63.78 28.8136 59.7864 24.8199 54.86 24.8199C49.9336 24.8199 45.94 28.8136 45.94 33.7399C45.94 38.6663 49.9336 42.6599 54.86 42.6599Z" fill="#F2F6F9"/>
<path d="M54.86 26.17C59.03 26.17 62.43 29.56 62.43 33.74C62.43 37.92 59.04 41.31 54.86 41.31C50.68 41.31 47.29 37.92 47.29 33.74C47.29 29.56 50.68 26.17 54.86 26.17ZM54.86 23.47C49.19 23.47 44.59 28.07 44.59 33.74C44.59 39.41 49.19 44.01 54.86 44.01C60.53 44.01 65.13 39.41 65.13 33.74C65.13 28.07 60.53 23.47 54.86 23.47Z" fill="#222A54"/>
<path d="M50.92 32.9799L52.65 36.5799L59.71 32.6799" stroke="#FF5100" stroke-width="2.7" stroke-miterlimit="10"/>
</g>
<defs>
<clipPath id="clip0_661_5565">
<rect width="67.73" height="49.65" fill="white" transform="translate(0.269989 0.849976)"/>
</clipPath>
</defs>
</svg>
