<svg width="69" height="46" viewBox="0 0 69 46" fill="none" xmlns="http://www.w3.org/2000/svg">
<g clip-path="url(#clip0_661_5505)">
<path d="M0.919922 5.37V34.79L42.4199 20.76V0L0.919922 5.37Z" fill="#FF5100"/>
<path d="M56.6399 7.24004C58.7099 7.24004 60.3899 8.92004 60.3899 10.99C60.3899 13.06 58.7099 14.74 56.6399 14.74C54.5699 14.74 52.8899 13.06 52.8899 10.99C52.8899 8.92004 54.5699 7.24004 56.6399 7.24004ZM56.6399 4.54004C53.0799 4.54004 50.1899 7.43004 50.1899 10.99C50.1899 14.55 53.0799 17.44 56.6399 17.44C60.1999 17.44 63.0899 14.55 63.0899 10.99C63.0899 7.43004 60.1999 4.54004 56.6399 4.54004Z" fill="#222A54"/>
<path d="M56.6399 21.86C61.9599 21.86 66.2999 26.19 66.2999 31.52V32.14H51.6499L51.4999 31.98C50.2999 30.74 48.8499 29.83 47.2499 29.31C48.2499 25.04 52.0899 21.86 56.6499 21.86M56.6499 19.16C49.8299 19.16 44.2899 24.69 44.2899 31.52C46.2799 31.58 48.1699 32.42 49.5499 33.85L50.4999 34.84H68.9999V31.52C68.9999 24.7 63.4699 19.16 56.6399 19.16H56.6499Z" fill="#222A54"/>
<path d="M60.4899 27.4301H64.1799" stroke="#222A54" stroke-width="2" stroke-miterlimit="10"/>
<path d="M28.9799 7.24004C31.0499 7.24004 32.7299 8.92004 32.7299 10.99C32.7299 13.06 31.0499 14.74 28.9799 14.74C26.9099 14.74 25.2299 13.06 25.2299 10.99C25.2299 8.92004 26.9099 7.24004 28.9799 7.24004ZM28.9799 4.54004C25.4199 4.54004 22.5299 7.43004 22.5299 10.99C22.5299 14.55 25.4199 17.44 28.9799 17.44C32.5399 17.44 35.4299 14.55 35.4299 10.99C35.4299 7.43004 32.5399 4.54004 28.9799 4.54004Z" fill="#222A54"/>
<path d="M28.9799 21.86C33.5499 21.86 37.3799 25.05 38.3799 29.31C36.7799 29.83 35.3199 30.73 34.1299 31.98L33.9799 32.14H19.3299V31.52C19.3299 26.2 23.6599 21.86 28.9899 21.86M28.9899 19.16C22.1699 19.16 16.6299 24.69 16.6299 31.52V34.84H35.1299L36.0799 33.85C37.4599 32.41 39.3499 31.58 41.3399 31.52C41.3399 24.7 35.8099 19.16 28.9799 19.16H28.9899Z" fill="#222A54"/>
<path d="M35.2798 27.4301H31.5898" stroke="#222A54" stroke-width="2" stroke-miterlimit="10"/>
<path d="M42.7799 15.69C45.1499 15.69 47.0799 17.62 47.0799 19.99C47.0799 22.36 45.1499 24.29 42.7799 24.29C40.4099 24.29 38.4799 22.36 38.4799 19.99C38.4799 17.62 40.4099 15.69 42.7799 15.69ZM42.7799 12.99C38.9199 12.99 35.7799 16.12 35.7799 19.99C35.7799 23.86 38.9099 26.99 42.7799 26.99C46.6499 26.99 49.7799 23.86 49.7799 19.99C49.7799 16.12 46.6499 12.99 42.7799 12.99Z" fill="#222A54"/>
<path d="M42.7799 31.55C48.6799 31.55 53.4799 36.35 53.4799 42.25V43.15H32.0899V42.25C32.0899 36.35 36.8899 31.55 42.7899 31.55M42.7899 28.85C35.3899 28.85 29.3899 34.85 29.3899 42.25V45.85H56.1799V42.25C56.1799 34.85 50.1799 28.85 42.7799 28.85H42.7899Z" fill="#222A54"/>
<path d="M46.95 37.8199H50.96" stroke="#222A54" stroke-width="2" stroke-miterlimit="10"/>
</g>
<defs>
<clipPath id="clip0_661_5505">
<rect width="68.08" height="45.85" fill="white" transform="translate(0.919922)"/>
</clipPath>
</defs>
</svg>
