<svg width="51" height="45" viewBox="0 0 51 45" fill="none" xmlns="http://www.w3.org/2000/svg">
<g clip-path="url(#clip0_661_5529)">
<path d="M0 11.8871L3.27671 32.7785L31.8319 24.9721V11.0793L0 11.8871Z" fill="#FF5100"/>
<path d="M31.3608 8.91367C34.9891 8.91367 38.3643 10.3552 40.6144 12.8621C42.6676 15.1532 43.6028 18.0432 43.2512 21.0028C42.9418 23.5724 41.6199 25.9749 39.5245 27.7507C36.4165 30.39 34.4195 34.0738 33.9203 38.1198L33.9062 38.2312V39.8259H28.8576V38.2312L28.8435 38.1198C28.3443 34.0947 26.3403 30.4109 23.2112 27.7507C21.1158 25.968 19.7868 23.5724 19.4845 21.0028C19.1329 18.0432 20.0681 15.1532 22.1213 12.8621C24.3714 10.3552 27.7466 8.91367 31.3749 8.91367M31.3749 7.03345C22.8315 7.03345 16.714 13.7953 17.6 21.2256C17.9797 24.4081 19.6181 27.1727 21.9807 29.1853C24.8215 31.6017 26.5301 34.8886 26.9661 38.3566V41.7131H35.8118V38.3566C36.2407 34.8956 37.9213 31.6017 40.7691 29.1853C43.1317 27.1797 44.77 24.4151 45.1497 21.2256C46.0357 13.7953 39.9182 7.03345 31.3749 7.03345Z" fill="#222A54"/>
<path d="M31.3608 15.8774C32.971 15.8774 34.3633 16.5111 35.2915 17.6601C36.0438 18.5933 36.3884 19.7493 36.2618 20.9192C36.1212 22.2075 35.4251 23.1058 34.8625 23.6351C33.5687 24.8607 32.3945 26.2465 31.3608 27.7716C30.3272 26.2465 29.1529 24.8607 27.8521 23.6351C27.2895 23.1058 26.5934 22.2075 26.4528 20.9192C26.3262 19.7493 26.6708 18.5933 27.4231 17.6601C28.3513 16.5111 29.7506 15.8774 31.3538 15.8774M31.3538 13.9972C29.1599 13.9972 27.2333 14.8816 25.9395 16.4902C24.8777 17.8133 24.3855 19.4568 24.5683 21.1211C24.7652 22.9735 25.7496 24.2549 26.5442 25C28.0911 26.4624 29.4201 28.1406 30.517 29.9721H32.2046C33.3015 28.1337 34.6235 26.4554 36.1704 25C36.9579 24.2549 37.9424 22.9735 38.1463 21.1211C38.3221 19.4568 37.8369 17.8064 36.7751 16.4902C35.4813 14.8816 33.5547 13.9972 31.3608 13.9972H31.3538Z" fill="#222A54"/>
<path d="M26.9661 44.0599H35.7907" stroke="#222A54" stroke-width="2.7" stroke-miterlimit="10"/>
<path d="M46.317 14.2062L50.2898 9.80505" stroke="#222A54" stroke-width="2.7" stroke-miterlimit="10"/>
<path d="M17.0867 14.2062L13.1139 9.80505" stroke="#222A54" stroke-width="2.7" stroke-miterlimit="10"/>
<path d="M31.3819 5.78691V0" stroke="#222A54" stroke-width="2.7" stroke-miterlimit="10"/>
</g>
<defs>
<clipPath id="clip0_661_5529">
<rect width="51" height="45" fill="white"/>
</clipPath>
</defs>
</svg>
