<svg width="69" height="53" viewBox="0 0 69 53" fill="none" xmlns="http://www.w3.org/2000/svg">
<g clip-path="url(#clip0_661_5600)">
<path d="M0.360107 39.55L42.5201 35.73V0L0.360107 39.55Z" fill="#FF5100"/>
<mask id="mask0_661_5600" style="mask-type:luminance" maskUnits="userSpaceOnUse" x="23" y="4" width="45" height="17">
<path d="M67.9602 4.95001H23.5302V20.74H67.9602V4.95001Z" fill="white"/>
</mask>
<g mask="url(#mask0_661_5600)">
<path d="M57.0999 7.6714L25.5732 19.1462L33.8946 42.0089L65.4213 30.5341L57.0999 7.6714Z" fill="#F2F6F9"/>
<path d="M56.2001 9.58999L63.4901 29.63L34.7901 40.08L27.5001 20.04L56.2001 9.58999ZM57.9901 5.73999L23.6501 18.24L33.0001 43.92L67.3401 31.42L57.9901 5.73999Z" fill="#222A54"/>
<path d="M63.0171 12.6723L25.2694 19.3282L29.4943 43.2886L67.2419 36.6326L63.0171 12.6723Z" fill="#F2F6F9"/>
<path d="M61.8001 14.41L65.5002 35.41L30.7102 41.54L27.0102 20.54L61.8001 14.41ZM64.2301 10.93L23.5302 18.11L28.2802 45.02L68.9802 37.84L64.2301 10.93Z" fill="#222A54"/>
</g>
<path d="M66.0002 21.11V49.11H26.5302V21.11H66.0002ZM69.0002 18.11H23.5302V52.11H69.0002V18.11Z" fill="#222A54"/>
<path d="M66.0002 33.54V36.69H62.1602C61.2902 36.69 60.5802 35.98 60.5802 35.11C60.5802 34.24 61.2902 33.53 62.1602 33.53H66.0002M69.0002 30.53H62.1602C59.6302 30.53 57.5802 32.58 57.5802 35.11C57.5802 37.64 59.6302 39.69 62.1602 39.69H69.0002V30.54V30.53Z" fill="#222A54"/>
<path d="M51.2601 28.69L49.9701 32.64H45.8101L49.1801 35.09L47.8901 39.05L51.2601 36.6L54.6201 39.05L53.3401 35.09L56.7001 32.64H52.5401L51.2601 28.69Z" fill="#222A54"/>
</g>
<defs>
<clipPath id="clip0_661_5600">
<rect width="68.64" height="52.11" fill="white" transform="translate(0.360107)"/>
</clipPath>
</defs>
</svg>
