<svg width="66" height="53" viewBox="0 0 66 53" fill="none" xmlns="http://www.w3.org/2000/svg">
<g clip-path="url(#clip0_661_5630)">
<path d="M0.0933838 4.97001V34.28L40.7334 29.87V0.570007L0.0933838 4.97001Z" fill="#FF5100"/>
<path d="M39.5734 9.70001C47.9934 9.70001 55.3234 15.7 57.0034 23.97C57.9534 28.63 57.0234 33.38 54.4034 37.35C51.7834 41.32 47.7634 44.02 43.1034 44.97C41.9234 45.21 40.7234 45.33 39.5334 45.33C31.1134 45.33 23.7834 39.33 22.1034 31.06C20.1434 21.44 26.3834 12.01 36.0134 10.06C37.1934 9.82001 38.3934 9.70001 39.5834 9.70001M39.5834 6.70001C38.2034 6.70001 36.8134 6.84001 35.4134 7.12001C24.1534 9.41001 16.8734 20.4 19.1634 31.66C21.1734 41.52 29.8434 48.33 39.5334 48.33C40.9134 48.33 42.3034 48.19 43.7034 47.91C54.9634 45.62 62.2434 34.63 59.9534 23.37C57.9434 13.51 49.2734 6.70001 39.5834 6.70001Z" fill="#222A54"/>
<path d="M39.2634 15.44V28.56H50.4134" stroke="#222A54" stroke-width="3" stroke-miterlimit="10"/>
<path d="M39.3534 8.39V1.5" stroke="#222A54" stroke-width="3" stroke-miterlimit="10"/>
<path d="M44.5134 1.5H34.0034" stroke="#222A54" stroke-width="3" stroke-miterlimit="10"/>
<path d="M59.0034 9.22001L64.2734 3.95001" stroke="#222A54" stroke-width="3" stroke-miterlimit="10"/>
<path d="M20.1134 9.22001L14.8334 3.95001" stroke="#222A54" stroke-width="3" stroke-miterlimit="10"/>
<path d="M59.0034 45.81L64.2734 51.08" stroke="#222A54" stroke-width="3" stroke-miterlimit="10"/>
<path d="M20.1134 45.81L14.8334 51.08" stroke="#222A54" stroke-width="3" stroke-miterlimit="10"/>
</g>
<defs>
<clipPath id="clip0_661_5630">
<rect width="65.24" height="52.14" fill="white" transform="translate(0.0933838)"/>
</clipPath>
</defs>
</svg>
