<svg width="81" height="61" viewBox="0 0 81 61" fill="none" xmlns="http://www.w3.org/2000/svg">
<g clip-path="url(#clip0_661_5357)">
<path d="M0.0899658 45.29L47.53 41.24V0L0.0899658 45.29Z" fill="#FF5100"/>
<path d="M46.64 20.02C57.11 20.02 65.62 28.53 65.62 39C65.62 49.47 57.1 57.98 46.64 57.98C36.18 57.98 27.66 49.46 27.66 39C27.66 28.54 36.18 20.02 46.64 20.02ZM46.64 17.32C34.67 17.32 24.96 27.03 24.96 39C24.96 50.97 34.67 60.68 46.64 60.68C58.61 60.68 68.32 50.97 68.32 39C68.32 27.03 58.61 17.32 46.64 17.32Z" fill="#222A54"/>
<path d="M46.64 30.18C51.5 30.18 55.46 34.14 55.46 39C55.46 43.86 51.5 47.82 46.64 47.82C41.78 47.82 37.82 43.86 37.82 39C37.82 34.14 41.78 30.18 46.64 30.18ZM46.64 27.48C40.29 27.48 35.12 32.65 35.12 39C35.12 45.35 40.29 50.52 46.64 50.52C52.99 50.52 58.16 45.35 58.16 39C58.16 32.65 52.99 27.48 46.64 27.48Z" fill="#222A54"/>
<path d="M46.45 38.68L67.77 15.43L70.25 17.9L47 39.22L46.45 38.68Z" fill="#222A54"/>
<path d="M73.67 18.95L65.99 19.48L66.35 11.62L73.67 4.3L75.56 9.23L81 11.62L73.67 18.95Z" fill="#222A54"/>
</g>
<defs>
<clipPath id="clip0_661_5357">
<rect width="80.91" height="60.68" fill="white" transform="translate(0.0899658)"/>
</clipPath>
</defs>
</svg>
