<svg width="61" height="57" viewBox="0 0 61 57" fill="none" xmlns="http://www.w3.org/2000/svg">
<g clip-path="url(#clip0_661_5398)">
<path d="M21.99 8.19C33.6 3.39 43.01 8.91 43.01 20.52V26.17L0.969971 43.56V37.91C0.969971 26.3 10.38 12.99 21.99 8.19Z" fill="#FF5100"/>
<path d="M38.1599 3C43.0799 3 47.0899 7.01 47.0899 11.93C47.0899 16.85 43.0799 20.86 38.1599 20.86C33.2399 20.86 29.2299 16.85 29.2299 11.93C29.2299 7.01 33.2399 3 38.1599 3ZM38.1599 0C31.5699 0 26.2299 5.34 26.2299 11.93C26.2299 18.52 31.5699 23.86 38.1599 23.86C44.7499 23.86 50.0899 18.52 50.0899 11.93C50.0899 5.34 44.7499 0 38.1599 0Z" fill="#222A54"/>
<path d="M38.1599 30.04C49.0999 30.04 57.9999 38.94 57.9999 49.88V53.02H18.3199V49.88C18.3199 38.94 27.2199 30.04 38.1599 30.04ZM38.1599 27.04C25.5499 27.04 15.3199 37.27 15.3199 49.88V56.02H60.9999V49.88C60.9999 37.27 50.7699 27.04 38.1599 27.04Z" fill="#222A54"/>
<path d="M38.1599 30.04H38.4399C38.9899 30.04 39.5399 30.08 40.0899 30.13V40.53L38.1899 43.06L36.2399 40.52V30.13C36.8799 30.07 37.5199 30.04 38.1699 30.04M38.1699 27.04C36.2299 27.04 34.5599 27.28 33.2399 27.57V41.54L38.2099 48.03L43.0999 41.54V27.57C41.8499 27.3 40.2899 27.07 38.4899 27.04C38.3799 27.04 38.2799 27.04 38.1699 27.04Z" fill="#222A54"/>
<path d="M45.2599 42.33H52.0999" stroke="#222A54" stroke-width="2" stroke-miterlimit="10"/>
</g>
<defs>
<clipPath id="clip0_661_5398">
<rect width="60.03" height="56.02" fill="white" transform="translate(0.969971)"/>
</clipPath>
</defs>
</svg>
