<svg width="26" height="26" viewBox="0 0 16 12" fill="none" xmlns="http://www.w3.org/2000/svg">
<path d="M8.05115 -0.00134277C8.05684 -0.0013307 8.06298 -0.00131661 8.06955 -0.00130017L8.14035 -0.00107978C8.96214 0.00193931 13.1273 0.0321302 14.2503 0.334039C14.9387 0.518684 15.4808 1.06284 15.6648 1.75357C15.7661 2.13307 15.8367 2.63747 15.8859 3.15622L15.8954 3.26013C15.9032 3.34683 15.9103 3.43372 15.9169 3.52029L15.9246 3.62399C15.9904 4.5381 15.998 5.3935 15.9989 5.58065L15.999 5.6059C15.999 5.60797 15.999 5.61135 15.999 5.61135V5.62552C15.999 5.62552 15.999 5.6289 15.999 5.63097L15.9989 5.65621C15.998 5.85044 15.9898 6.76433 15.9169 7.71664L15.9087 7.82064L15.9 7.92476C15.8505 8.49733 15.7762 9.06589 15.6648 9.48329C15.4808 10.174 14.9387 10.7183 14.2503 10.9028C13.0898 11.2149 8.68109 11.2368 8.06955 11.2383L8.02246 11.2384C8.0186 11.2384 8.0152 11.2384 8.01228 11.2384L7.99307 11.2384C7.99307 11.2384 7.98866 11.2384 7.98573 11.2384L7.92846 11.2383C7.61941 11.2375 6.34057 11.2316 5.0013 11.1856L4.83007 11.1795C4.8015 11.1784 4.77292 11.1774 4.74434 11.1763L4.57291 11.1695L4.40188 11.1622C3.29238 11.1135 2.23452 11.0337 1.74789 10.9028C1.05947 10.7183 0.517371 10.174 0.333379 9.48329C0.221913 9.06589 0.147602 8.49733 0.0980616 7.92476L0.0893244 7.82064L0.0811165 7.71664C0.0109033 6.79896 0.000711116 5.91695 -0.000768403 5.68023L-0.000945201 5.64634C-0.000957608 5.64329 -0.000967947 5.64048 -0.000976562 5.63791V5.59895C-0.000967947 5.59639 -0.000957608 5.59358 -0.000945201 5.59053L-0.000768403 5.55664C0.000571538 5.34226 0.00905783 4.59862 0.0628044 3.77854L0.0697612 3.67567C0.0709608 3.65847 0.0721808 3.64124 0.0734215 3.62399L0.0811165 3.52029C0.0877404 3.43372 0.0948985 3.34683 0.102634 3.26013L0.112196 3.15622C0.16142 2.63747 0.232046 2.13307 0.333379 1.75357C0.517371 1.06284 1.05947 0.518684 1.74789 0.334039C2.23452 0.203212 3.29238 0.123407 4.40188 0.0747265L4.57291 0.06748L4.74434 0.0607085C4.77292 0.0596186 4.8015 0.0585479 4.83007 0.0574959L5.0013 0.0514067C6.25508 0.00836661 7.45591 0.000396221 7.85767 -0.00107978L7.92846 -0.00130017C7.93504 -0.00131661 7.94117 -0.0013307 7.94686 -0.00134277H8.05115ZM6.39905 3.20985V8.02702L10.5558 5.61857L6.39905 3.20985Z" fill="white"/>
</svg>
